<?xml version="1.0" encoding="UTF-8"?>
<svg width="328.97" height="120" version="1.1" viewBox="0 0 328.97 120" xml:space="preserve" xmlns="http://www.w3.org/2000/svg">
<style type="text/css">
	.st0{fill:#252422;}
	.st1{fill:#EB5E28;}
</style>
<g transform="matrix(1.0274 0 0 1.0274 -536.82 -334.62)">
		<path class="st0" d="m648.2 352.4v18.5h-5.2v-16.5c0-9.6-3.7-11.7-8.5-11.7-5.7-0.1-9 4.2-9 11.5v16.8h-5.2v-4.8c-2.2 3.6-6 5.6-10.6 5.6-7.8 0-12.7-4.8-12.5-14.6v-18.5h5.2v16.5c0 9.6 3.7 11.7 8.6 11.7 5.6 0 9.4-4.2 9.4-11.6v-19.6l5.2 4v3.8c2.2-3.6 5.5-5.6 10.1-5.6 7.8-0.1 12.6 4.7 12.5 14.5z"/>
		<path class="st0" d="m657.8 362.3v-19.1h-5.6v-4.6h5.6v-10.1l5.2 4v6.1h9.7v4.6h-9.7v18.6c0 3.3 1.8 5.1 5 5.1 1 0 1.8-0.2 3.5-1.4l2 4.2c-2.3 1.4-3.9 1.9-5.8 1.9-6.3 0.1-9.9-3.3-9.9-9.3z"/>
		<path class="st0" d="m676.4 361.8c0-6.5 4.6-10.1 12.4-10.1h8.9c-0.6-6.1-2.8-9.2-8.1-9.2-3.8 0-6.5 1.5-8.2 4.5l-4.5-1.8c2.5-4.5 6.6-7.3 12.8-7.3 8.9 0 13.2 5.2 13.2 15.6v17.4h-4.5l-0.1-3.6c-2.1 2.8-5.4 4.4-9.8 4.4-7.6-0.1-12.1-3.7-12.1-9.9zm21.6-4.6-0.1-1.4h-8c-6.1 0-8.4 2.2-8.4 5.9 0 3.4 2.6 5.5 7.2 5.5 5.8 0 9.3-4.2 9.3-10z"/>
		<path class="st0" d="m709 338.6h4.8l0.3 5.5c2.3-3.9 6.1-6.3 10.9-6.3 8.7 0 14.6 6.9 14.6 16.9s-5.9 16.9-14.6 16.9c-4.7 0-8.5-2.3-10.9-6.2v18.3h-5.1zm25.4 16.1c0-7.2-4.3-12.2-10.5-12.2-5.8 0-9.8 5-9.8 12.2s4.1 12.2 9.8 12.2c6.1 0 10.5-5 10.5-12.2z"/>
		<path class="st0" d="m743.6 338.6h4.8l0.3 5.5c2.3-3.9 6.1-6.3 10.9-6.3 8.7 0 14.6 6.9 14.6 16.9s-5.9 16.9-14.6 16.9c-4.7 0-8.5-2.3-10.9-6.2v18.3h-5.2zm25.4 16.1c0-7.2-4.3-12.2-10.5-12.2-5.8 0-9.8 5-9.8 12.2s4.1 12.2 9.8 12.2c6.1 0 10.5-5 10.5-12.2z"/>
		<path class="st0" d="m777.1 354.7c0-9.9 6.6-16.9 15.9-16.9s14.7 7.2 14.7 17.8h-25.4c0.3 6.9 4.8 11.4 11 11.4 4.5 0 7.7-2.5 9.4-5.9l4.5 2.3c-2.5 4.9-7.4 8.3-14.2 8.3-9.2 0-15.9-7-15.9-17zm5.6-3.4h19.6c-1-5.6-4.2-9-9.3-9s-9.2 3.5-10.3 9z"/>
		<path class="st0" d="m812 354.7c0-10 5.9-16.9 14.6-16.9 4.7 0 8.5 2.3 10.9 6.2v-18.3h5.2v45.2h-4.9l-0.3-5.5c-2.4 3.9-6.2 6.3-10.9 6.3-8.7-0.1-14.6-7-14.6-17zm25.5 0.6v-1.2c-0.3-6.9-4.3-11.6-9.8-11.6-6.1 0-10.5 5-10.5 12.2s4.4 12.2 10.5 12.2c5.6 0 9.5-4.7 9.8-11.6z"/>
	
		<path class="st0" d="m596.6 412.6c0-9.9 6.6-16.9 15.9-16.9s14.7 7.2 14.7 17.8h-25.4c0.3 6.9 4.8 11.4 11 11.4 4.5 0 7.7-2.5 9.4-5.9l4.5 2.3c-2.5 4.9-7.4 8.3-14.2 8.3-9.3-0.1-15.9-7-15.9-17zm5.5-3.4h19.6c-1-5.6-4.2-9-9.3-9s-9.2 3.5-10.3 9z"/>
		<path class="st0" d="m630.5 396.4h4.9l0.3 4.8c2.1-3.6 5.5-5.6 10.1-5.6 7.8 0 12.7 4.8 12.6 14.6v18.5h-5.2v-16.5c0-9.6-3.7-11.7-8.5-11.7-5.7-0.1-9 4.2-9 11.5v16.7h-5.2z"/>
		<path class="st0" d="m661.6 412.6c0-9.9 6.6-16.9 15.9-16.9s14.7 7.2 14.7 17.8h-25.4c0.3 6.9 4.8 11.4 11 11.4 4.5 0 7.7-2.5 9.4-5.9l4.5 2.3c-2.5 4.9-7.4 8.3-14.1 8.3-9.3-0.1-16-7-16-17zm5.6-3.4h19.6c-1-5.6-4.2-9-9.3-9s-9.2 3.5-10.3 9z"/>
		<path class="st0" d="m697.5 396.4h5.2v7.4c2.6-4.1 7-7.5 11.4-7.5v4.8c-5.8 0-11.4 2.6-11.4 9.8v17.8h-5.2z"/>
		<path class="st0" d="m718 412.1c0-9.8 5.9-16.5 14.6-16.5 4.8 0 8.7 2.3 11 6.3v-5.5h5.2v29.2c0 11.2-6.9 16.8-16 16.8-6.3 0-10.9-2.3-12.5-3.2l1.9-4.2c1.6 1 5.8 2.8 10.5 2.8 6.3 0 10.8-3.6 10.8-12.1v-3.4c-2.3 3.9-6.2 6.2-11 6.2-8.6 0-14.5-6.7-14.5-16.4zm25.5-0.1c0-6.9-4-11.8-9.8-11.8-6.1 0-10.4 4.9-10.4 11.8s4.3 12 10.5 12c5.7 0 9.7-4.9 9.7-12z"/>
		<path class="st0" d="m752.8 440.7 1.9-4.3c2 0.8 3.5 1.3 4.4 1.3 2.3 0 3.8-1.3 4.8-3.6l2.3-5.4-14-32.2h5.5l11 26.2 10.8-26.2h5.5l-15.5 36.8c-2.5 5.8-4.7 9.2-10.5 9.2-1.6-0.1-3.8-0.7-6.2-1.8z"/>
	</g><path class="st1" d="m-7.5e-7 28.048v62.158c0 0.20548 0.10274 0.30822 0.30822 0.30822h5.137c2.2603 0 4.1096 1.8493 4.1096 4.1096v5.0342c0 0.20548 0.10274 0.30822 0.30822 0.30822h29.178c0.20548 0 0.30822-0.10274 0.30822-0.30822v-5.0342c0-2.2603 1.8493-4.1096 4.1096-4.1096h5.0342c0.20548 0 0.30822-0.10274 0.30822-0.30822v-53.733c0-0.20548-0.10274-0.30822-0.30822-0.30822h-7.911c-0.10274 0-0.30822-0.10274-0.30822-0.30822v-7.8082c0-0.20548-0.10274-0.30822-0.30822-0.30822h-7.8082c-0.20548 0-0.30822-0.10274-0.30822-0.30822v-7.8082c0-0.20548-0.10274-0.30822-0.30822-0.30822h-8.9384c-0.20548 0-0.30822 0.10274-0.30822 0.30822v8.9384c0 0.20548 0.10274 0.30822 0.30822 0.30822h7.8082c0.10274 0 0.30822 0.10274 0.30822 0.30822v7.8082c0 0.20548 0.10274 0.30822 0.30822 0.30822h7.911c0.20548 0 0.30822 0.10274 0.30822 0.30822v37.911c0 8.2192-6.4726 15-14.692 15.103-8.2192 0.10274-15.103-6.5753-15.103-14.897v-47.671c0-0.20548-0.10274-0.30822-0.30822-0.30822h-8.9384c-0.10274 0.10274-0.20548 0.20548-0.20548 0.30822z" stroke-width="1.0274"/>
</svg>
