<?xml version="1.0" encoding="UTF-8"?>
<svg width="3022" height="5e3" version="1.1" viewBox="0 0 3022 5e3" xml:space="preserve" xmlns="http://www.w3.org/2000/svg">
<style type="text/css">
	.st0{fill:#eb5e28;}
</style>
<path class="st0" d="m0 531.97v3865.4c0 10.073 8.0587 16.117 16.117 16.117h316.4c140.02 0 253.95 113.83 253.95 253.95v316.4c0 10.073 8.0587 16.117 16.117 16.117h1816.8c10.073 0 16.117-8.0587 16.117-16.117v-316.4c0-140.02 113.83-253.95 253.95-253.95h316.4c10.073 0 16.117-8.0587 16.117-16.117v-3340.4c0-10.073-8.0587-16.117-16.117-16.117h-491.78c-10.073 0-16.117-8.0587-16.117-16.117v-491.78c0-10.073-8.0586-16.117-16.117-16.117h-484.73c-10.073 0-16.117-8.0587-16.117-16.117v-484.63c0-10.073-8.0586-16.117-16.117-16.117h-554.23c-10.073 0-16.117 8.0587-16.117 16.117v553.23c0 10.073 8.0587 16.117 16.117 16.117h484.73c10.073 0 16.117 8.0587 16.117 16.117v484.73c0 10.073 8.0587 16.117 16.117 16.117h491.78c10.073 0 16.117 8.0586 16.117 16.117v2356c0 508.9-404.04 932.09-912.95 939.14-508.9 7.0514-938.13-410.09-938.13-925.03v-2956.5c0-10.073-8.0586-16.117-16.117-16.117h-552.22c-9.066-0.10073-16.117 6.9506-16.117 16.017z" stroke-width="1.0073"/>
</svg>
